<svg width="18" height="18" viewBox="0 0 18 18" fill="none" xmlns="http://www.w3.org/2000/svg">
<path d="M15.023 5.78953L11.0855 1.85203C11.0332 1.79981 10.9711 1.7584 10.9029 1.73017C10.8346 1.70194 10.7614 1.68744 10.6875 1.6875H3.9375C3.63913 1.6875 3.35298 1.80603 3.142 2.017C2.93103 2.22798 2.8125 2.51413 2.8125 2.8125V15.1875C2.8125 15.4859 2.93103 15.772 3.142 15.983C3.35298 16.194 3.63913 16.3125 3.9375 16.3125H14.0625C14.3609 16.3125 14.647 16.194 14.858 15.983C15.069 15.772 15.1875 15.4859 15.1875 15.1875V6.1875C15.1876 6.11361 15.1731 6.04043 15.1448 5.97215C15.1166 5.90386 15.0752 5.84181 15.023 5.78953ZM11.25 3.60773L13.2673 5.625H11.25V3.60773ZM14.0625 15.1875H7.875V14.0625H8.4375C8.58668 14.0625 8.72976 14.0032 8.83525 13.8977C8.94074 13.7923 9 13.6492 9 13.5C9 13.3508 8.94074 13.2077 8.83525 13.1023C8.72976 12.9968 8.58668 12.9375 8.4375 12.9375H7.875V11.8125H8.4375C8.58668 11.8125 8.72976 11.7532 8.83525 11.6477C8.94074 11.5423 9 11.3992 9 11.25C9 11.1008 8.94074 10.9577 8.83525 10.8523C8.72976 10.7468 8.58668 10.6875 8.4375 10.6875H7.875V9.5625H8.4375C8.58668 9.5625 8.72976 9.50324 8.83525 9.39775C8.94074 9.29226 9 9.14918 9 9C9 8.85082 8.94074 8.70774 8.83525 8.60225C8.72976 8.49676 8.58668 8.4375 8.4375 8.4375H7.875V7.875C7.875 7.72582 7.81574 7.58274 7.71025 7.47725C7.60476 7.37176 7.46168 7.3125 7.3125 7.3125C7.16332 7.3125 7.02024 7.37176 6.91475 7.47725C6.80926 7.58274 6.75 7.72582 6.75 7.875V8.4375H6.1875C6.03832 8.4375 5.89524 8.49676 5.78975 8.60225C5.68426 8.70774 5.625 8.85082 5.625 9C5.625 9.14918 5.68426 9.29226 5.78975 9.39775C5.89524 9.50324 6.03832 9.5625 6.1875 9.5625H6.75V10.6875H6.1875C6.03832 10.6875 5.89524 10.7468 5.78975 10.8523C5.68426 10.9577 5.625 11.1008 5.625 11.25C5.625 11.3992 5.68426 11.5423 5.78975 11.6477C5.89524 11.7532 6.03832 11.8125 6.1875 11.8125H6.75V12.9375H6.1875C6.03832 12.9375 5.89524 12.9968 5.78975 13.1023C5.68426 13.2077 5.625 13.3508 5.625 13.5C5.625 13.6492 5.68426 13.7923 5.78975 13.8977C5.89524 14.0032 6.03832 14.0625 6.1875 14.0625H6.75V15.1875H3.9375V2.8125H10.125V6.1875C10.125 6.33668 10.1843 6.47976 10.2898 6.58525C10.3952 6.69074 10.5383 6.75 10.6875 6.75H14.0625V15.1875Z" fill="#233357"/>
</svg>
