<svg width="18" height="18" viewBox="0 0 18 18" fill="none" xmlns="http://www.w3.org/2000/svg">
<path d="M12.9375 1.6875H5.0625C4.76413 1.6875 4.47798 1.80603 4.267 2.017C4.05603 2.22798 3.9375 2.51413 3.9375 2.8125V5.34375C3.93788 5.51833 3.97871 5.69045 4.05679 5.84661C4.13486 6.00276 4.24806 6.1387 4.3875 6.24375L8.06273 9L4.3875 11.7562C4.24806 11.8613 4.13486 11.9972 4.05679 12.1534C3.97871 12.3095 3.93788 12.4817 3.9375 12.6562V15.1875C3.9375 15.4859 4.05603 15.772 4.267 15.983C4.47798 16.194 4.76413 16.3125 5.0625 16.3125H12.9375C13.2359 16.3125 13.522 16.194 13.733 15.983C13.944 15.772 14.0625 15.4859 14.0625 15.1875V12.6816C14.0621 12.5076 14.0216 12.3362 13.9442 12.1804C13.8667 12.0247 13.7544 11.8889 13.616 11.7837L9.93305 9L13.616 6.21563C13.7545 6.11057 13.8669 5.97494 13.9443 5.81931C14.0218 5.66368 14.0622 5.49227 14.0625 5.31844V2.8125C14.0625 2.51413 13.944 2.22798 13.733 2.017C13.522 1.80603 13.2359 1.6875 12.9375 1.6875ZM12.9375 2.8125V3.9375H5.0625V2.8125H12.9375ZM12.9375 15.1875H5.0625V12.6562L9 9.70312L12.9375 12.6809V15.1875ZM9 8.29688L5.0625 5.34375V5.0625H12.9375V5.31844L9 8.29688Z" fill="#2F80ED"/>
</svg>
