<svg width="175" height="24" viewBox="0 0 175 24" fill="none" xmlns="http://www.w3.org/2000/svg">
<path d="M77.2692 20V9.29459L73.0881 17.2662H71.3192L67.1381 9.29459V20H63.9678V3.68919H67.3678L72.1922 12.9703L77.0624 3.68919H80.4395V20H77.2692ZM83.9597 20V3.68919H87.107V15.5432L95.0097 3.68919H97.9502V20H94.803V8.28378L86.9921 20H83.9597ZM100.468 11.7297C100.468 10.7342 100.644 9.76171 100.996 8.81216C101.364 7.8473 101.892 6.97432 102.582 6.19324C103.271 5.39685 104.113 4.76892 105.109 4.30946C106.104 3.83468 107.237 3.5973 108.509 3.5973C110.01 3.5973 111.304 3.92658 112.391 4.58514C113.494 5.24369 114.313 6.10135 114.849 7.15811L112.414 8.83513C112.138 8.22252 111.778 7.74009 111.334 7.38784C110.89 7.02027 110.415 6.76757 109.91 6.62973C109.405 6.47658 108.907 6.4 108.417 6.4C107.62 6.4 106.924 6.56081 106.326 6.88243C105.744 7.20405 105.254 7.62522 104.856 8.14595C104.458 8.66667 104.159 9.24865 103.96 9.89189C103.776 10.5351 103.684 11.1784 103.684 11.8216C103.684 12.5414 103.799 13.2383 104.029 13.9122C104.259 14.5707 104.58 15.1604 104.994 15.6811C105.423 16.1865 105.928 16.5923 106.51 16.8986C107.107 17.1896 107.758 17.3351 108.463 17.3351C108.968 17.3351 109.481 17.2509 110.002 17.0824C110.523 16.914 111.005 16.6459 111.449 16.2784C111.893 15.9108 112.238 15.436 112.483 14.8541L115.079 16.3473C114.757 17.159 114.229 17.8482 113.494 18.4149C112.774 18.9815 111.962 19.4104 111.059 19.7014C110.155 19.9923 109.259 20.1378 108.371 20.1378C107.207 20.1378 106.142 19.9005 105.178 19.4257C104.213 18.9356 103.378 18.2923 102.674 17.4959C101.984 16.6842 101.441 15.7806 101.042 14.7851C100.66 13.7743 100.468 12.7559 100.468 11.7297ZM116.837 20V16.6919H119.364V20H116.837ZM122.365 20V3.68919H128.292C130.069 3.68919 131.554 4.05676 132.749 4.79189C133.943 5.51171 134.839 6.49189 135.437 7.73243C136.034 8.95766 136.333 10.3207 136.333 11.8216C136.333 13.4757 136.003 14.9153 135.345 16.1405C134.686 17.3658 133.752 18.3153 132.542 18.9892C131.347 19.6631 129.931 20 128.292 20H122.365ZM133.139 11.8216C133.139 10.7649 132.948 9.83829 132.565 9.04189C132.182 8.23018 131.631 7.60225 130.911 7.15811C130.191 6.69865 129.318 6.46892 128.292 6.46892H125.535V17.2203H128.292C129.333 17.2203 130.214 16.9905 130.934 16.5311C131.654 16.0563 132.197 15.4131 132.565 14.6014C132.948 13.7743 133.139 12.8477 133.139 11.8216ZM145.77 20.1149C144.576 20.1149 143.488 19.8851 142.508 19.4257C141.543 18.9662 140.709 18.3459 140.004 17.5649C139.315 16.7685 138.779 15.8802 138.396 14.9C138.013 13.9045 137.822 12.886 137.822 11.8446C137.822 10.7572 138.021 9.72342 138.419 8.74324C138.832 7.74775 139.391 6.86712 140.096 6.10135C140.816 5.32027 141.658 4.70766 142.623 4.26351C143.603 3.80405 144.675 3.57432 145.839 3.57432C147.018 3.57432 148.091 3.81171 149.055 4.28649C150.036 4.76126 150.87 5.39685 151.559 6.19324C152.249 6.98964 152.785 7.87793 153.168 8.85811C153.55 9.83829 153.742 10.8491 153.742 11.8905C153.742 12.9626 153.543 13.9964 153.145 14.9919C152.746 15.9721 152.187 16.8527 151.468 17.6338C150.763 18.3995 149.921 19.0045 148.941 19.4486C147.976 19.8928 146.919 20.1149 145.77 20.1149ZM141.038 11.8446C141.038 12.5491 141.145 13.2306 141.359 13.8892C141.574 14.5477 141.88 15.1374 142.278 15.6581C142.692 16.1635 143.19 16.5694 143.772 16.8757C144.369 17.1667 145.043 17.3122 145.793 17.3122C146.559 17.3122 147.241 17.159 147.838 16.8527C148.435 16.5311 148.933 16.1099 149.331 15.5892C149.729 15.0532 150.028 14.4635 150.227 13.8203C150.441 13.1617 150.549 12.5032 150.549 11.8446C150.549 11.1401 150.434 10.4662 150.204 9.82297C149.99 9.16441 149.676 8.58243 149.262 8.07703C148.864 7.55631 148.366 7.15045 147.769 6.85946C147.187 6.55315 146.528 6.4 145.793 6.4C145.012 6.4 144.323 6.56081 143.726 6.88243C143.144 7.18874 142.654 7.60225 142.255 8.12297C141.857 8.64369 141.551 9.22568 141.337 9.86892C141.137 10.5122 141.038 11.1707 141.038 11.8446ZM155.186 11.7297C155.186 10.7342 155.362 9.76171 155.714 8.81216C156.082 7.8473 156.61 6.97432 157.299 6.19324C157.989 5.39685 158.831 4.76892 159.827 4.30946C160.822 3.83468 161.955 3.5973 163.227 3.5973C164.727 3.5973 166.022 3.92658 167.109 4.58514C168.212 5.24369 169.031 6.10135 169.567 7.15811L167.132 8.83513C166.856 8.22252 166.496 7.74009 166.052 7.38784C165.608 7.02027 165.133 6.76757 164.628 6.62973C164.122 6.47658 163.625 6.4 163.135 6.4C162.338 6.4 161.641 6.56081 161.044 6.88243C160.462 7.20405 159.972 7.62522 159.574 8.14595C159.176 8.66667 158.877 9.24865 158.678 9.89189C158.494 10.5351 158.402 11.1784 158.402 11.8216C158.402 12.5414 158.517 13.2383 158.747 13.9122C158.977 14.5707 159.298 15.1604 159.712 15.6811C160.14 16.1865 160.646 16.5923 161.228 16.8986C161.825 17.1896 162.476 17.3351 163.181 17.3351C163.686 17.3351 164.199 17.2509 164.72 17.0824C165.24 16.914 165.723 16.6459 166.167 16.2784C166.611 15.9108 166.956 15.436 167.201 14.8541L169.797 16.3473C169.475 17.159 168.947 17.8482 168.212 18.4149C167.492 18.9815 166.68 19.4104 165.777 19.7014C164.873 19.9923 163.977 20.1378 163.089 20.1378C161.925 20.1378 160.86 19.9005 159.895 19.4257C158.931 18.9356 158.096 18.2923 157.391 17.4959C156.702 16.6842 156.159 15.7806 155.76 14.7851C155.377 13.7743 155.186 12.7559 155.186 11.7297Z" fill="#233357"/>
<path d="M36.1574 0.187294H50.2932L38.085 21.7619H23.9492L36.1574 0.187294Z" fill="#2F80ED"/>
<path d="M23.1281 0.187294H33.5288L21.1779 21.7619H10.7771L23.1281 0.187294Z" fill="#87BAFF"/>
<path d="M12.4767 0.187248H20.3568L7.88005 21.7619H0L12.4767 0.187248Z" fill="#BFDAFF"/>
</svg>
