<svg width="40" height="40" viewBox="0 0 40 40" fill="none" xmlns="http://www.w3.org/2000/svg">
<circle cx="20" cy="20" r="20" fill="#F6F6F6"/>
<path d="M25.5 16.3333C25.5 14.8746 24.9205 13.4757 23.8891 12.4442C22.8576 11.4128 21.4587 10.8333 20 10.8333C18.5413 10.8333 17.1424 11.4128 16.1109 12.4442C15.0795 13.4757 14.5 14.8746 14.5 16.3333C14.5 22.75 11.75 24.5833 11.75 24.5833H28.25C28.25 24.5833 25.5 22.75 25.5 16.3333Z" stroke="#8D9BC0" stroke-width="2" stroke-linecap="round" stroke-linejoin="round"/>
<path d="M21.5866 28.25C21.4254 28.5278 21.1941 28.7584 20.9158 28.9187C20.6375 29.079 20.3219 29.1634 20.0007 29.1634C19.6796 29.1634 19.364 29.079 19.0857 28.9187C18.8074 28.7584 18.5761 28.5278 18.4149 28.25" stroke="#8D9BC0" stroke-width="2" stroke-linecap="round" stroke-linejoin="round"/>
</svg>
