<svg width="24" height="25" viewBox="0 0 24 25" fill="none" xmlns="http://www.w3.org/2000/svg">
<path d="M22.2806 13.5917L19.2806 16.5917C19.1399 16.7324 18.949 16.8115 18.75 16.8115C18.551 16.8115 18.3601 16.7324 18.2194 16.5917C18.0786 16.451 17.9996 16.2601 17.9996 16.0611C17.9996 15.862 18.0786 15.6712 18.2194 15.5304L19.9397 13.8111H11.5603L6.31031 19.0611H9C9.19891 19.0611 9.38968 19.1401 9.53033 19.2807C9.67098 19.4214 9.75 19.6121 9.75 19.8111C9.75 20.01 9.67098 20.2007 9.53033 20.3414C9.38968 20.482 9.19891 20.5611 9 20.5611H4.5C4.30109 20.5611 4.11032 20.482 3.96967 20.3414C3.82902 20.2007 3.75 20.01 3.75 19.8111V15.3111C3.75 15.1121 3.82902 14.9214 3.96967 14.7807C4.11032 14.6401 4.30109 14.5611 4.5 14.5611C4.69891 14.5611 4.88968 14.6401 5.03033 14.7807C5.17098 14.9214 5.25 15.1121 5.25 15.3111V18.0007L10.5 12.7507V4.37137L8.78063 6.09169C8.63989 6.23242 8.44902 6.31148 8.25 6.31148C8.05098 6.31148 7.86011 6.23242 7.71937 6.09169C7.57864 5.95096 7.49958 5.76008 7.49958 5.56106C7.49958 5.36204 7.57864 5.17117 7.71937 5.03044L10.7194 2.03044C10.789 1.9607 10.8717 1.90538 10.9628 1.86764C11.0538 1.8299 11.1514 1.81047 11.25 1.81047C11.3486 1.81047 11.4462 1.8299 11.5372 1.86764C11.6283 1.90538 11.711 1.9607 11.7806 2.03044L14.7806 5.03044C14.9214 5.17117 15.0004 5.36204 15.0004 5.56106C15.0004 5.76008 14.9214 5.95096 14.7806 6.09169C14.6399 6.23242 14.449 6.31148 14.25 6.31148C14.051 6.31148 13.8601 6.23242 13.7194 6.09169L12 4.37137V12.3111H19.9397L18.2194 10.5917C18.0786 10.451 17.9996 10.2601 17.9996 10.0611C17.9996 9.86204 18.0786 9.67117 18.2194 9.53044C18.3601 9.3897 18.551 9.31064 18.75 9.31064C18.949 9.31064 19.1399 9.3897 19.2806 9.53044L22.2806 12.5304C22.3504 12.6001 22.4057 12.6828 22.4434 12.7739C22.4812 12.8649 22.5006 12.9625 22.5006 13.0611C22.5006 13.1596 22.4812 13.2572 22.4434 13.3483C22.4057 13.4393 22.3504 13.522 22.2806 13.5917Z" fill="white"/>
</svg>
