<svg width="24" height="25" viewBox="0 0 24 25" fill="none" xmlns="http://www.w3.org/2000/svg">
<path d="M22.2806 13.5916L19.2806 16.5916C19.1399 16.7324 18.949 16.8114 18.75 16.8114C18.551 16.8114 18.3601 16.7324 18.2194 16.5916C18.0786 16.4509 17.9996 16.26 17.9996 16.061C17.9996 15.862 18.0786 15.6711 18.2194 15.5304L19.9397 13.811H11.5603L6.31031 19.061H9C9.19891 19.061 9.38968 19.14 9.53033 19.2807C9.67098 19.4213 9.75 19.6121 9.75 19.811C9.75 20.0099 9.67098 20.2007 9.53033 20.3413C9.38968 20.482 9.19891 20.561 9 20.561H4.5C4.30109 20.561 4.11032 20.482 3.96967 20.3413C3.82902 20.2007 3.75 20.0099 3.75 19.811V15.311C3.75 15.1121 3.82902 14.9213 3.96967 14.7807C4.11032 14.64 4.30109 14.561 4.5 14.561C4.69891 14.561 4.88968 14.64 5.03033 14.7807C5.17098 14.9213 5.25 15.1121 5.25 15.311V18.0007L10.5 12.7507V4.37133L8.78063 6.09164C8.63989 6.23237 8.44902 6.31143 8.25 6.31143C8.05098 6.31143 7.86011 6.23237 7.71937 6.09164C7.57864 5.95091 7.49958 5.76004 7.49958 5.56101C7.49958 5.36199 7.57864 5.17112 7.71937 5.03039L10.7194 2.03039C10.789 1.96066 10.8717 1.90534 10.9628 1.86759C11.0538 1.82985 11.1514 1.81042 11.25 1.81042C11.3486 1.81042 11.4462 1.82985 11.5372 1.86759C11.6283 1.90534 11.711 1.96066 11.7806 2.03039L14.7806 5.03039C14.9214 5.17112 15.0004 5.36199 15.0004 5.56101C15.0004 5.76004 14.9214 5.95091 14.7806 6.09164C14.6399 6.23237 14.449 6.31143 14.25 6.31143C14.051 6.31143 13.8601 6.23237 13.7194 6.09164L12 4.37133V12.311H19.9397L18.2194 10.5916C18.0786 10.4509 17.9996 10.26 17.9996 10.061C17.9996 9.86199 18.0786 9.67112 18.2194 9.53039C18.3601 9.38966 18.551 9.3106 18.75 9.3106C18.949 9.3106 19.1399 9.38966 19.2806 9.53039L22.2806 12.5304C22.3504 12.6 22.4057 12.6828 22.4434 12.7738C22.4812 12.8649 22.5006 12.9625 22.5006 13.061C22.5006 13.1596 22.4812 13.2572 22.4434 13.3482C22.4057 13.4393 22.3504 13.522 22.2806 13.5916Z" fill="black"/>
</svg>
