<svg width="18" height="18" viewBox="0 0 18 18" fill="none" xmlns="http://www.w3.org/2000/svg">
<path d="M16.7105 9.96045L14.4605 12.2105C14.3549 12.316 14.2118 12.3753 14.0625 12.3753C13.9132 12.3753 13.7701 12.316 13.6645 12.2105C13.559 12.1049 13.4997 11.9618 13.4997 11.8125C13.4997 11.6632 13.559 11.5201 13.6645 11.4145L14.9548 10.125H8.67023L4.73273 14.0625H6.75C6.89918 14.0625 7.04226 14.1217 7.14775 14.2272C7.25324 14.3327 7.3125 14.4758 7.3125 14.625C7.3125 14.7742 7.25324 14.9172 7.14775 15.0227C7.04226 15.1282 6.89918 15.1875 6.75 15.1875H3.375C3.22582 15.1875 3.08274 15.1282 2.97725 15.0227C2.87176 14.9172 2.8125 14.7742 2.8125 14.625V11.25C2.8125 11.1008 2.87176 10.9577 2.97725 10.8522C3.08274 10.7467 3.22582 10.6875 3.375 10.6875C3.52418 10.6875 3.66726 10.7467 3.77275 10.8522C3.87824 10.9577 3.9375 11.1008 3.9375 11.25V13.2672L7.875 9.32975V3.04522L6.58547 4.33545C6.47992 4.441 6.33677 4.5003 6.1875 4.5003C6.03823 4.5003 5.89508 4.441 5.78953 4.33545C5.68398 4.22991 5.62469 4.08675 5.62469 3.93748C5.62469 3.78822 5.68398 3.64506 5.78953 3.53952L8.03953 1.28952C8.09177 1.23722 8.15381 1.19573 8.2221 1.16742C8.29038 1.13911 8.36358 1.12454 8.4375 1.12454C8.51142 1.12454 8.58462 1.13911 8.6529 1.16742C8.72119 1.19573 8.78323 1.23722 8.83547 1.28952L11.0855 3.53952C11.191 3.64506 11.2503 3.78822 11.2503 3.93748C11.2503 4.08675 11.191 4.22991 11.0855 4.33545C10.9799 4.441 10.8368 4.5003 10.6875 4.5003C10.5382 4.5003 10.3951 4.441 10.2895 4.33545L9 3.04522V8.99998H14.9548L13.6645 7.71045C13.559 7.60491 13.4997 7.46175 13.4997 7.31248C13.4997 7.16322 13.559 7.02006 13.6645 6.91452C13.7701 6.80897 13.9132 6.74967 14.0625 6.74967C14.2118 6.74967 14.3549 6.80897 14.4605 6.91452L16.7105 9.16451C16.7628 9.21676 16.8043 9.27879 16.8326 9.34708C16.8609 9.41537 16.8754 9.48856 16.8754 9.56248C16.8754 9.6364 16.8609 9.7096 16.8326 9.77789C16.8043 9.84617 16.7628 9.90821 16.7105 9.96045Z" fill="#2F80ED"/>
</svg>
